<mxfile host="app.diagrams.net" modified="2024-06-14T09:36:12.555Z" agent="Mozilla/5.0 (Macintosh; Intel Mac OS X 10_15_7) AppleWebKit/537.36 (KHTML, like Gecko) Chrome/124.0.0.0 Safari/537.36" version="24.4.15" etag="4_aECgBbMqd7ir7nMr7E" type="github">
  <diagram name="第 1 页" id="5nRZdh9cAbySPHkI67S6">
    <mxGraphModel>
      <root>
        <mxCell id="0" />
        <mxCell id="1" parent="0" />
      </root>
    </mxGraphModel>
  </diagram>
</mxfile>
